<svg viewBox="0 0 512 512.00077" xmlns="http://www.w3.org/2000/svg">
    <path d="m503.765625 276.285156-35.582031 36.585938 12.53125 49.433594c3.875 15.289062-5.136719 30.882812-20.316406 35.15625l-49.109376 13.828124-13.828124 49.109376c-4.273438 15.179687-19.867188 24.191406-35.15625 20.316406l-49.433594-12.53125-36.585938 35.582031c-11.292968 10.980469-29.277344 10.980469-40.570312 0l-36.585938-35.582031-49.433594 12.53125c-15.289062 3.875-30.882812-5.136719-35.15625-20.316406l-13.828124-49.109376-49.109376-13.828124c-15.179687-4.273438-24.191406-19.867188-20.316406-35.15625l12.53125-49.433594-35.578125-36.585938c-10.984375-11.292968-10.984375-29.277344 0-40.570312l35.578125-36.585938-12.53125-49.433594c-3.875-15.289062 5.136719-30.882812 20.316406-35.15625l49.109376-13.828124 13.828124-49.109376c4.273438-15.179687 19.867188-24.191406 35.15625-20.316406l49.433594 12.53125 36.585938-35.582031c11.292968-10.980469 29.277344-10.980469 40.570312 0l36.585938 35.582031 49.4375-12.53125c15.285156-3.875 30.878906 5.136719 35.152344 20.316406l13.828124 49.109376 49.109376 13.828124c15.179687 4.273438 24.191406 19.867188 20.316406 35.15625l-12.53125 49.433594 35.582031 36.585938c10.980469 11.292968 10.980469 29.277344 0 40.570312zm0 0" fill="#ffde55" />
    <path d="m227.050781 357.875c-91.003906-110.757812-68.402343-266.832031-53.703125-320.59375l-23.652344-5.996094c-15.289062-3.875-30.878906 5.136719-35.15625 20.316406l-13.828124 49.109376-49.109376 13.828124c-15.179687 4.273438-24.191406 19.867188-20.316406 35.15625l12.53125 49.433594-35.578125 36.585938c-10.984375 11.292968-10.984375 29.277344 0 40.570312l35.578125 36.585938-12.53125 49.433594c-3.875 15.289062 5.136719 30.882812 20.316406 35.15625l49.109376 13.828124 13.828124 49.109376c4.273438 15.179687 19.867188 24.191406 35.15625 20.316406l49.433594-12.53125 36.589844 35.582031c11.292969 10.980469 29.273438 10.980469 40.566406 0l22.183594-21.574219c-14.234375-38.957031-36.558594-81.890625-71.417969-124.316406zm0 0" fill="#ffc757" />
    <path d="m431.792969 256c0 97.089844-78.703125 175.792969-175.792969 175.792969-97.085938 0-175.792969-78.703125-175.792969-175.792969s78.707031-175.792969 175.792969-175.792969c97.089844 0 175.792969 78.703125 175.792969 175.792969zm0 0" fill="#ffeb99" />
    <path d="m227.050781 357.875c-64.148437-78.070312-71.847656-178.664062-65.65625-250.066406-48.824219 31.234375-81.1875 85.933594-81.1875 148.191406 0 97.089844 78.707031 175.792969 175.792969 175.792969 6.617188 0 13.167969-.367188 19.59375-1.078125-12.601562-23.878906-28.5-48.445313-48.542969-72.839844zm0 0" fill="#ffe36c" />
    <path d="m256 297.777344c-15.988281 0-28.949219-12.960938-28.949219-28.949219v-21.046875c0-4.363281 3.539063-7.902344 7.902344-7.902344h42.09375c4.363281 0 7.902344 3.539063 7.902344 7.902344v21.046875c0 15.988281-12.960938 28.949219-28.949219 28.949219zm0 0" fill="#57565c" />
    <path d="m190.046875 268.828125c0-13.578125-13.824219-24.589844-30.878906-24.589844-17.054688 0-30.878907 11.011719-30.878907 24.589844 0 13.582031 13.824219 24.589844 30.878907 24.589844 17.054687 0 30.878906-11.007813 30.878906-24.589844zm0 0" fill="#ffa6bb" />
    <path d="m383.710938 268.828125c0-13.578125-13.824219-24.589844-30.878907-24.589844-17.050781 0-30.875 11.011719-30.875 24.589844 0 13.582031 13.824219 24.589844 30.875 24.589844 17.054688 0 30.878907-11.007813 30.878907-24.589844zm0 0" fill="#ffa6bb" />
    <g fill="#57565c">
        <path d="m339.089844 255.332031c-4.265625 0-7.722656-3.460937-7.722656-7.726562v-12.828125c0-4.265625 3.457031-7.726563 7.722656-7.726563 4.269531 0 7.726562 3.460938 7.726562 7.726563v12.828125c0 4.265625-3.457031 7.726562-7.726562 7.726562zm0 0" />
        <path d="m172.910156 255.332031c-4.269531 0-7.726562-3.460937-7.726562-7.726562v-12.828125c0-4.265625 3.457031-7.726563 7.726562-7.726563 4.265625 0 7.726563 3.460938 7.726563 7.726563v12.828125c0 4.265625-3.460938 7.726562-7.726563 7.726562zm0 0" />
    </g>
</svg>